<svg width="24" height="24" viewBox="0 0 24 24" fill="none" xmlns="http://www.w3.org/2000/svg">
<path d="M12.702 0.555C12.517 0.308 12.335 0 11.965 0C11.6 0 11.416 0.308 11.293 0.554C11.219 0.554 9.81598 2.767 8.09698 5.722C5.76798 9.722 4.48298 12.615 4.18498 14.4C4.0583 14.9245 3.99617 15.4625 3.99998 16.002C3.99998 17.784 4.54898 19.445 5.65298 20.862C7.18498 22.893 9.45098 24 11.965 24C14.414 24 16.745 22.834 18.358 20.862C19.448 19.446 20 17.786 20 16.001C20.0041 15.4617 19.9396 14.924 19.808 14.401C19.501 12.616 18.218 9.723 15.887 5.723C14.8722 3.97188 13.8101 2.24858 12.702 0.555ZM17.967 15.877C17.9746 17.2078 17.5449 18.5042 16.744 19.567C15.577 21.047 13.861 21.908 11.965 21.908L11.962 21.916C10.062 21.916 8.34798 21.055 7.24398 19.517C6.44798 18.411 6.02098 17.179 6.02098 15.824C6.02098 15.395 6.08298 15.026 6.14298 14.595C6.31998 13.23 7.36598 10.905 9.19998 7.756C10.544 5.416 11.71 3.631 11.71 3.631L11.963 3.261L12.272 3.694C12.272 3.694 13.435 5.416 14.785 7.815C16.558 10.956 17.6 13.294 17.845 14.648C17.908 15.076 17.967 15.445 17.967 15.877Z" fill="#229A66"/>
<ellipse cx="12" cy="12.5" rx="3" ry="9.5" fill="#229A66"/>
<ellipse cx="11" cy="13.5" rx="3" ry="9.5" fill="#229A66"/>
<ellipse cx="13" cy="13.5" rx="3" ry="9.5" fill="#229A66"/>
<ellipse cx="15" cy="15.5" rx="3" ry="7.5" fill="#229A66"/>
<ellipse cx="9" cy="15.5" rx="3" ry="7.5" fill="#229A66"/>
</svg>
