<svg xmlns="http://www.w3.org/2000/svg" viewBox="0 0 24 24" id="moo">
    <path fill="#229A66"
        d="M12.702.555C12.517.308 12.335 0 11.965 0c-.365 0-.549.308-.672.554-.074 0-1.477 2.213-3.196 5.168-2.329 4-3.614 6.893-3.912 8.678A6.624 6.624 0 0 0 4 16.002c0 1.782.549 3.443 1.653 4.86C7.185 22.893 9.451 24 11.965 24c2.449 0 4.78-1.166 6.393-3.138C19.448 19.446 20 17.786 20 16.001a6.36 6.36 0 0 0-.192-1.6c-.307-1.785-1.59-4.678-3.921-8.678A112.04 112.04 0 0 0 12.702.555zm5.265 15.322a6.073 6.073 0 0 1-1.223 3.69c-1.167 1.48-2.883 2.341-4.779 2.341l-.003.008c-1.9 0-3.614-.861-4.718-2.399-.796-1.106-1.223-2.338-1.223-3.693 0-.429.062-.798.122-1.229.177-1.365 1.223-3.69 3.057-6.839 1.344-2.34 2.51-4.125 2.51-4.125l.253-.37.309.433s1.163 1.722 2.513 4.121c1.773 3.141 2.815 5.479 3.06 6.833.063.428.122.797.122 1.229z"></path>
</svg>