<svg width="116" height="38" viewBox="0 0 116 38" fill="none" xmlns="http://www.w3.org/2000/svg">
<path fill-rule="evenodd" clip-rule="evenodd" d="M57.745 0C25.8536 0 0 8.39686 0 18.7546C0 29.113 25.8536 37.5092 57.745 37.5092C89.6357 37.5092 115.49 29.113 115.49 18.7546C115.49 8.39686 89.6357 0 57.745 0Z" fill="white"/>
<path fill-rule="evenodd" clip-rule="evenodd" d="M25.4383 18.7605C25.4383 23.0483 23.231 26.2164 19.4045 26.2164C15.5787 26.2164 13.3714 23.049 13.3714 18.7605C13.3714 14.2539 15.5603 11.2173 19.4045 11.2173C23.2494 11.2173 25.4383 14.2532 25.4383 18.7605Z" fill="#003764"/>
<path fill-rule="evenodd" clip-rule="evenodd" d="M17.259 18.7914C17.259 20.356 17.4049 23.3657 19.4117 23.3657C21.4186 23.3657 21.5645 20.356 21.5645 18.7914C21.5645 17.2038 21.3555 14.0285 19.4117 14.0285C17.4679 14.0285 17.259 17.2038 17.259 18.7914Z" fill="white"/>
<path fill-rule="evenodd" clip-rule="evenodd" d="M34.9372 25.9962H27.5852V11.4374H31.2875V23.4807H34.9372V25.9962ZM37.3476 11.4374H42.0165C43.844 11.4374 45.3015 11.4611 46.6677 13.0224C47.9964 14.5174 48.6056 16.5841 48.6056 18.7388C48.6056 20.7181 48.0148 22.7842 46.8523 24.2128C45.5972 25.7748 44.0286 25.9969 42.2754 25.9969H37.3476V11.4374Z" fill="#003764"/>
<path fill-rule="evenodd" clip-rule="evenodd" d="M41.795 23.3151C42.3122 23.3151 42.6441 23.3651 43.1238 23.0174C43.474 22.7441 43.7513 22.3721 43.9544 21.8996C44.3973 20.9074 44.5445 19.7653 44.5445 18.6238C44.5445 17.4817 44.3046 15.9927 43.7691 15.0497C43.1606 14.0318 42.5698 14.0817 41.684 14.0817H41.2411V23.3158L41.795 23.3151Z" fill="white"/>
<path fill-rule="evenodd" clip-rule="evenodd" d="M62.0065 25.9962L57.5801 17.1735V25.9962H54.0184V11.4374H57.6241L62.0236 20.2069V11.4374H65.5774V25.9962H62.0065ZM74.9185 23.2895H72.1809L71.4476 25.9962H67.4804L71.2005 11.4374H75.9272L79.6814 25.9962H75.6L74.9185 23.2895Z" fill="#003764"/>
<path fill-rule="evenodd" clip-rule="evenodd" d="M74.5512 20.5479L73.5734 15.1588L72.5969 20.5479H74.5512Z" fill="white"/>
<path fill-rule="evenodd" clip-rule="evenodd" d="M87.2832 25.9962H83.3548L79.8457 11.4374H83.7038L85.2848 19.6496L86.6734 11.4374H90.8284L87.2832 25.9962ZM99.8548 18.9222V25.9962H96.0316V18.9222L92.1282 11.4374H95.9442L97.909 15.6207L100.135 11.4374H103.609L99.8548 18.9222Z" fill="#003764"/>
</svg>
