<svg width="255" height="253" viewBox="0 0 255 253" fill="none" xmlns="http://www.w3.org/2000/svg">
<path d="M127.35 252.839L162.826 53.32C196.641 53.32 207.307 57.028 208.847 72.163C208.847 72.163 231.531 63.705 242.972 46.527C198.326 25.839 153.467 24.906 153.467 24.906L127.291 56.788L127.35 56.784L101.174 24.901C101.174 24.901 56.314 25.835 11.674 46.523C23.105 63.701 45.798 72.159 45.798 72.159C47.347 57.023 58 53.315 91.588 53.291L127.35 252.839Z" fill="#E82127"/>
<path d="M127.336 15.697C163.426 15.421 204.735 21.28 247.023 39.711C252.675 29.538 254.128 25.042 254.128 25.042C207.901 6.75298 164.61 0.493975 127.331 0.336975C90.054 0.493975 46.765 6.75398 0.544006 25.042C0.544006 25.042 2.606 30.58 7.644 39.711C49.924 21.28 91.24 15.421 127.331 15.697H127.336Z" fill="#E82127"/>
</svg>
